# xmcd CD database file
# Generated: Tue Nov 25 21:20:33 2003 by KSCD
# 
# Track frame offsets:
#       150
#       10040
#       25545
#       40140
#       55575
#       68990
#       85840
#       102790
#       117890
#       132205
#       150095
#
# Disc length: 2221 seconds
#
# Revision: 2
# Processed by: cddbd v1.4PL0 Copyright (c) Steve Scherf et al.
# Submitted via: Kscd 1.3.3
#
DISCID=7208ab0b
DTITLE=Tracy Byrd - The Truth About Men
DYEAR=2003
DGENRE=Country
TTITLE0=Drinkin' Bone
TTITLE1=You Feel Good
TTITLE2=How'd I Wind Up In Jamaica
TTITLE3=Tiny Town
TTITLE4=The Truth About Men
TTITLE5=Making Memories Of Us
TTITLE6=That's What Keeps Her Getting By
TTITLE7=When You Go
TTITLE8=Baby Put Your Clothes On
TTITLE9=Somewhere I Wanna Go
TTITLE10=Ten Rounds With Jose Cuervo
EXTD=
EXTT0=
EXTT1=
EXTT2=
EXTT3=
EXTT4=
EXTT5=
EXTT6=
EXTT7=
EXTT8=
EXTT9=
EXTT10=
PLAYORDER=
